HIERARCHY
ROOT Hips
{
    OFFSET   0.000000   0.000000   0.000000
    CHANNELS 6 Xposition Yposition Zposition Zrotation Xrotation Yrotation
    JOINT Chest
    {
        OFFSET   0.000000   8.007230   0.000000
        CHANNELS 3 Zrotation Xrotation Yrotation
        JOINT Chest2
        {
            OFFSET   0.000000  22.077100   0.000000
            CHANNELS 3 Zrotation Xrotation Yrotation
            JOINT Neck
            {
                OFFSET   0.000000  23.255100   0.000000
                CHANNELS 3 Zrotation Xrotation Yrotation
                JOINT Head
                {
                    OFFSET   0.000000  14.370100   1.956600
                    CHANNELS 3 Zrotation Xrotation Yrotation
                    End Site
                    {
                        OFFSET   0.000000  19.566000   0.000000
                    }
                }
            }
            JOINT LeftCollar
            {
                OFFSET   3.911900  19.017000  -0.467063
                CHANNELS 3 Zrotation Xrotation Yrotation
                JOINT LeftShoulder
                {
                    OFFSET  10.383700   0.000000   0.000000
                    CHANNELS 3 Zrotation Xrotation Yrotation
                    JOINT LeftElbow
                    {
                        OFFSET  26.662100   0.001193   0.000980
                        CHANNELS 3 Zrotation Xrotation Yrotation
                        JOINT LeftWrist
                        {
                            OFFSET  28.869000  -0.000059  -0.000082
                            CHANNELS 3 Zrotation Xrotation Yrotation
                            JOINT LeftFinger0
                            {
                                OFFSET   2.044650  -2.323450   3.252850
                                CHANNELS 3 Zrotation Xrotation Yrotation
                                JOINT LeftFinger01
                                {
                                    OFFSET   3.088130   0.000000   0.000000
                                    CHANNELS 3 Zrotation Xrotation Yrotation
                                    JOINT LeftFinger02
                                    {
                                        OFFSET   2.639460   0.000000   0.000000
                                        CHANNELS 3 Zrotation Xrotation Yrotation
                                        End Site
                                        {
                                            OFFSET   2.582190   0.000000   0.000000
                                        }
                                    }
                                }
                            }
                            JOINT LeftFinger1
                            {
                                OFFSET   8.364480   0.000000   3.252850
                                CHANNELS 3 Zrotation Xrotation Yrotation
                                JOINT LeftFinger11
                                {
                                    OFFSET   4.646930   0.000000   0.000000
                                    CHANNELS 3 Zrotation Xrotation Yrotation
                                    JOINT LeftFinger12
                                    {
                                        OFFSET   2.323470   0.000000   0.000000
                                        CHANNELS 3 Zrotation Xrotation Yrotation
                                        End Site
                                        {
                                            OFFSET   2.273050   0.000000   0.000000
                                        }
                                    }
                                }
                            }
                            JOINT LeftFinger2
                            {
                                OFFSET   8.364490   0.000016   1.078090
                                CHANNELS 3 Zrotation Xrotation Yrotation
                                JOINT LeftFinger21
                                {
                                    OFFSET   5.111610   0.000000   0.000000
                                    CHANNELS 3 Zrotation Xrotation Yrotation
                                    JOINT LeftFinger22
                                    {
                                        OFFSET   2.788150   0.000016   0.000000
                                        CHANNELS 3 Zrotation Xrotation Yrotation
                                        End Site
                                        {
                                            OFFSET   2.727660   0.000000   0.000000
                                        }
                                    }
                                }
                            }
                            JOINT LeftFinger3
                            {
                                OFFSET   7.899780   0.000015  -1.078090
                                CHANNELS 3 Zrotation Xrotation Yrotation
                                JOINT LeftFinger31
                                {
                                    OFFSET   4.646930   0.000000   0.000000
                                    CHANNELS 3 Zrotation Xrotation Yrotation
                                    JOINT LeftFinger32
                                    {
                                        OFFSET   2.323470   0.000000   0.000000
                                        CHANNELS 3 Zrotation Xrotation Yrotation
                                        End Site
                                        {
                                            OFFSET   2.273050   0.000000   0.000000
                                        }
                                    }
                                }
                            }
                            JOINT LeftFinger4
                            {
                                OFFSET   7.435090   0.000000  -3.252850
                                CHANNELS 3 Zrotation Xrotation Yrotation
                                JOINT LeftFinger41
                                {
                                    OFFSET   3.717550   0.000000   0.000000
                                    CHANNELS 3 Zrotation Xrotation Yrotation
                                    JOINT LeftFinger42
                                    {
                                        OFFSET   1.858770   0.000000   0.000000
                                        CHANNELS 3 Zrotation Xrotation Yrotation
                                        End Site
                                        {
                                            OFFSET   1.818440   0.000000   0.000000
                                        }
                                    }
                                }
                            }
                        }
                    }
                }
            }
            JOINT RightCollar
            {
                OFFSET  -3.911910  19.017000  -0.467062
                CHANNELS 3 Zrotation Xrotation Yrotation
                JOINT RightShoulder
                {
                    OFFSET -10.383700   0.000014   0.000000
                    CHANNELS 3 Zrotation Xrotation Yrotation
                    JOINT RightElbow
                    {
                        OFFSET -26.662100   0.001225   0.001091
                        CHANNELS 3 Zrotation Xrotation Yrotation
                        JOINT RightWrist
                        {
                            OFFSET -28.869000  -0.000020  -0.000085
                            CHANNELS 3 Zrotation Xrotation Yrotation
                            JOINT RightFinger0
                            {
                                OFFSET  -2.044650  -2.323490   3.252850
                                CHANNELS 3 Zrotation Xrotation Yrotation
                                JOINT RightFinger01
                                {
                                    OFFSET  -3.088130   0.000000   0.000000
                                    CHANNELS 3 Zrotation Xrotation Yrotation
                                    JOINT RightFinger02
                                    {
                                        OFFSET  -2.639460   0.000000   0.000000
                                        CHANNELS 3 Zrotation Xrotation Yrotation
                                        End Site
                                        {
                                            OFFSET  -2.582190   0.000000   0.000000
                                        }
                                    }
                                }
                            }
                            JOINT RightFinger1
                            {
                                OFFSET  -8.364480   0.000000   3.252850
                                CHANNELS 3 Zrotation Xrotation Yrotation
                                JOINT RightFinger11
                                {
                                    OFFSET  -4.646930   0.000000   0.000000
                                    CHANNELS 3 Zrotation Xrotation Yrotation
                                    JOINT RightFinger12
                                    {
                                        OFFSET  -2.323470   0.000000   0.000000
                                        CHANNELS 3 Zrotation Xrotation Yrotation
                                        End Site
                                        {
                                            OFFSET  -2.273050   0.000000   0.000000
                                        }
                                    }
                                }
                            }
                            JOINT RightFinger2
                            {
                                OFFSET  -8.364480   0.000000   1.078090
                                CHANNELS 3 Zrotation Xrotation Yrotation
                                JOINT RightFinger21
                                {
                                    OFFSET  -5.111620   0.000000   0.000000
                                    CHANNELS 3 Zrotation Xrotation Yrotation
                                    JOINT RightFinger22
                                    {
                                        OFFSET  -2.788160   0.000000   0.000000
                                        CHANNELS 3 Zrotation Xrotation Yrotation
                                        End Site
                                        {
                                            OFFSET  -2.727660   0.000000   0.000000
                                        }
                                    }
                                }
                            }
                            JOINT RightFinger3
                            {
                                OFFSET  -7.899780   0.000000  -1.078090
                                CHANNELS 3 Zrotation Xrotation Yrotation
                                JOINT RightFinger31
                                {
                                    OFFSET  -4.646930   0.000000   0.000000
                                    CHANNELS 3 Zrotation Xrotation Yrotation
                                    JOINT RightFinger32
                                    {
                                        OFFSET  -2.323470   0.000000   0.000000
                                        CHANNELS 3 Zrotation Xrotation Yrotation
                                        End Site
                                        {
                                            OFFSET  -2.273050   0.000000   0.000000
                                        }
                                    }
                                }
                            }
                            JOINT RightFinger4
                            {
                                OFFSET  -7.435090   0.000000  -3.252850
                                CHANNELS 3 Zrotation Xrotation Yrotation
                                JOINT RightFinger41
                                {
                                    OFFSET  -3.717550   0.000000   0.000000
                                    CHANNELS 3 Zrotation Xrotation Yrotation
                                    JOINT RightFinger42
                                    {
                                        OFFSET  -1.858760   0.000000   0.000000
                                        CHANNELS 3 Zrotation Xrotation Yrotation
                                        End Site
                                        {
                                            OFFSET  -1.818440   0.000000   0.000000
                                        }
                                    }
                                }
                            }
                        }
                    }
                }
            }
        }
    }
    JOINT LeftHip
    {
        OFFSET   9.783030   0.000000   0.000000
        CHANNELS 3 Zrotation Xrotation Yrotation
        JOINT LeftKnee
        {
            OFFSET   0.000063 -41.789100   0.000608
            CHANNELS 3 Zrotation Xrotation Yrotation
            JOINT LeftAnkle
            {
                OFFSET   0.000048 -41.133200  -0.000184
                CHANNELS 3 Zrotation Xrotation Yrotation
                JOINT LeftToe
                {
                    OFFSET   0.000000  -6.358960  14.674500
                    CHANNELS 3 Zrotation Xrotation Yrotation
                    End Site
                    {
                        OFFSET   0.000000   0.000000   3.913200
                    }
                }
            }
        }
    }
    JOINT RightHip
    {
        OFFSET  -9.783030   0.000000   0.000000
        CHANNELS 3 Zrotation Xrotation Yrotation
        JOINT RightKnee
        {
            OFFSET   0.000071 -41.789100   0.001239
            CHANNELS 3 Zrotation Xrotation Yrotation
            JOINT RightAnkle
            {
                OFFSET   0.000037 -41.133200  -0.000166
                CHANNELS 3 Zrotation Xrotation Yrotation
                JOINT RightToe
                {
                    OFFSET   0.000000  -6.358960  14.674500
                    CHANNELS 3 Zrotation Xrotation Yrotation
                    End Site
                    {
                        OFFSET   0.000000   0.000000   3.913200
                    }
                }
            }
        }
    }
}
MOTION
Frames: 6
Frame Time:   0.016667
  3.342350  89.045600  -1.618660   2.626370 -23.366100   3.304370  -2.923360  14.473700   4.618440  -7.452770  28.624300  10.536300  -3.847980  -3.478840  -0.233954  -6.392360  -6.956800  26.011600  -2.186260 -11.701800   0.789580 -57.585700  -3.404200 -65.735900 -10.997000 -30.164900 -101.682000 -26.283700 -59.786700 -14.115400  51.919700  50.380400 -99.032000   1.008000   0.003910  -0.000121   5.504010   0.003966  -0.000783 -44.827300   4.890890  -4.903000 -36.849100   0.002147  -0.006532 -26.806700  -0.004121  -0.005063 -40.295200  -3.581430   4.210830 -54.350700  -0.001677  -0.001566 -37.409400  -0.003487  -0.003087 -35.175000  -4.386450   6.191020 -53.120000  -0.001641  -0.006004 -35.377800  -0.004992  -0.006391 -45.795500  -6.897340   6.663190 -69.296200  -0.006955  -0.003825 -46.151200  -0.000419  -0.005238   6.415660  -9.714260  10.180500  36.020600  29.649000  36.378100  -8.242680  -0.103573  89.586600  54.089800 -58.379400  57.069400 -66.374800  42.162400  74.343000   9.240360  -0.055342   0.010339  -0.379877  -0.018191   0.226539  42.591800  -3.852370  -3.735290  34.912200  -0.321652   0.142213  24.795200  -0.173868   0.191566  35.334300  -3.738620  -4.932180  53.594000  -0.488671   0.384420  36.105100  -0.146432   0.414811  54.925100  -7.097400  -4.357930  54.967700   0.012458   0.006028  41.286200   0.021053   0.160685  56.816600  -9.688420  -6.102460  85.834800   0.037083   0.472404  57.166400   0.270429   0.144710  -3.424250  20.951100   2.021500  -0.799920   2.165520  10.557600  -2.518380  -2.584100   3.456190   0.000000   0.000000  -0.000000  -5.957220  11.184300 -11.336700   0.067491  25.002800 -11.063100  -5.070560  -7.961440   3.246760  -0.000000   0.000000  -0.000000
  3.327060  89.024200  -1.603520   2.729150 -23.571900   3.204780  -2.965690  14.527600   4.621430  -7.552870  28.726900  10.569300  -3.943380  -3.433800  -0.236769  -6.544240  -6.862410  24.336700  -2.229880 -11.673400   0.780485 -57.710200  -3.652030 -65.594900 -10.914000 -30.285200 -101.393000 -25.103600 -59.430800 -13.052000  52.199900  50.478600 -99.266600   0.994795   0.004177  -0.000207   5.497400   0.003967  -0.000920 -44.606200   4.869260  -4.919030 -36.667300   0.002095  -0.006593 -26.632900  -0.004120  -0.005111 -39.958300  -3.581370   4.258410 -54.333700  -0.001678  -0.001559 -37.308400  -0.003487  -0.003114 -35.046100  -4.320280   6.126440 -52.917900  -0.002056  -0.006043 -35.243300  -0.004951  -0.006463 -45.632500  -6.885370   6.688510 -69.053000  -0.006963  -0.003916 -45.989200  -0.000453  -0.005241   6.208910  -9.357520   9.967940  34.783500  30.857200  37.792400  -9.278710  -8.553060  89.225700  44.619900 -54.348700  43.303900 -67.788600  44.355500  73.986000  11.713700  -0.069199   0.014407   0.856738  -0.019669   0.279661  40.723500  -3.977920  -3.992150  33.346900  -0.490439   0.178515  23.389800  -0.283997   0.250051  32.853700  -3.720650  -5.409330  53.634400  -0.992536   0.608505  35.629300  -0.368611   0.681129  52.921400  -7.572690  -4.746920  54.870700  -0.015456   0.054700  40.923800   0.011591   0.373836  55.810400 -10.277400  -6.473160  84.284400   0.008154   0.801779  56.133000   0.426739   0.325975  -3.527460  21.207000   1.997280  -0.879215   2.127990  10.701500  -2.496310  -2.650720   3.483140   0.000000   0.000000   0.000000  -6.212360  11.119800 -11.181800   0.205819  25.500000 -11.160400  -5.133570  -8.142990   3.327870  -0.000000   0.000000  -0.000000
  3.304990  89.015700  -1.578550   2.831780 -23.772900   3.084590  -3.015100  14.570000   4.650650  -7.673030  28.803800  10.655900  -4.020020  -3.395450  -0.238602  -6.672330  -6.784920  22.210800  -2.281190 -11.588000   0.773978 -58.010800  -3.872520 -65.480900 -10.682100 -30.405000 -100.982000 -23.682100 -59.010600 -11.775500  52.414500  50.440300 -99.251700   1.046810   0.004434  -0.000159   5.523400   0.003964  -0.001058 -44.530300   4.879760  -4.946240 -36.605500   0.002053  -0.006665 -26.573700  -0.004124  -0.005161 -39.666000  -3.581340   4.298940 -54.318600  -0.001676  -0.001558 -37.220400  -0.003487  -0.003140 -34.932100  -4.208510   6.009070 -52.732500  -0.002490  -0.006078 -35.119900  -0.004906  -0.006528 -45.425500  -6.832040   6.683080 -68.737100  -0.006967  -0.003994 -45.778800  -0.000483  -0.005245   6.088040  -8.999010   9.809220  34.139300  32.052900  39.036400 -10.201200  -9.266500  87.007400  31.498500 -46.193200  25.355000 -68.797200  47.481300  73.986900  15.673200  -0.058683   0.015074   2.836480  -0.012770   0.233957  37.806100  -4.214490  -4.957270  30.970100  -0.503183   0.138620  21.652800  -0.310148   0.221206  31.897700  -4.112200  -6.308290  49.440800  -1.144700   0.558907  32.603300  -0.495619   0.669758  46.861300  -7.310070  -5.931860  54.700600  -0.360780   0.186428  40.091900  -0.156937   0.552164  53.076700 -12.179200  -9.222740  81.001200  -0.201925   0.827009  53.944300   0.357989   0.464121  -3.640190  21.457000   1.934690  -0.948604   2.083960  10.872400  -2.485380  -2.721270   3.543800  -0.000000   0.000000  -0.000000  -6.473260  11.067400 -10.992700   0.346378  25.976600 -11.202700  -5.170040  -8.325370   3.342410  -0.000000   0.000000   0.000000
  3.282090  89.014500  -1.562390   2.935370 -23.956700   2.961870  -3.069300  14.606400   4.704540  -7.806430  28.866700  10.784600  -4.080900  -3.376290  -0.240759  -6.770760  -6.743000  19.797800  -2.347870 -11.489800   0.770496 -58.213900  -3.995230 -65.377400 -10.338300 -30.466500 -100.475000 -22.124600 -58.592800 -10.413000  52.604900  50.372500 -99.213900   1.126540   0.004690  -0.000084   5.563260   0.003961  -0.001196 -44.516700   4.898860  -4.963780 -36.596700   0.002010  -0.006736 -26.565200  -0.004128  -0.005212 -39.510700  -3.581390   4.320240 -54.310400  -0.001674  -0.001558 -37.173500  -0.003487  -0.003163 -34.874800  -4.124100   5.888740 -52.631300  -0.002931  -0.006109 -35.052500  -0.004861  -0.006591 -45.296700  -6.791360   6.677820 -68.539800  -0.006967  -0.004067 -45.647500  -0.000510  -0.005249   6.037670  -8.800060   9.735040  33.953300  33.076400  39.898600 -11.605200  -7.640680  83.690000  21.300100 -32.377300  10.559700 -69.711200  49.589900  74.426000  19.694200  -0.042148   0.015169   4.847040  -0.005872   0.155202  34.232600  -4.334110  -5.942690  28.093300  -0.505005   0.077155  19.652000  -0.313885   0.163161  30.719900  -4.501690  -7.175820  41.419800  -1.166460   0.434853  27.586400  -0.552484   0.590089  39.489300  -6.624780  -7.128710  54.040400  -0.682174   0.282090  37.748600  -0.317349   0.651539  49.000400 -13.517100 -11.615200  75.839000  -0.387209   0.830626  50.505100   0.227442   0.536767  -3.756630  21.680800   1.863310  -1.013590   2.054490  11.041800  -2.473750  -2.790220   3.617720  -0.000000   0.000000  -0.000000  -6.732330  11.007500 -10.807100   0.491519  26.432800 -11.229300  -5.196020  -8.502320   3.348160  -0.000000   0.000000  -0.000000
  3.268350  89.032200  -1.562760   3.044300 -24.105500   2.850970  -3.118960  14.642200   4.768420  -7.934490  28.927600  10.938100  -4.133450  -3.388620  -0.244984  -6.858830  -6.777050  17.195800  -2.445230 -11.428800   0.779545 -58.584900  -4.003650 -65.298400  -9.882800 -30.399500 -99.889100 -20.436600 -58.259800  -9.016910  52.288700  50.307600 -99.025300   1.165010   0.004955  -0.000029   5.582510   0.003964  -0.001328 -44.846300   4.922550  -4.929550 -36.866000   0.001953  -0.006792 -26.823400  -0.004126  -0.005268 -40.028900  -3.581880   4.247470 -54.334200  -0.001679  -0.001546 -37.326800  -0.003488  -0.003177 -35.098200  -4.110730   5.798740 -52.958500  -0.003367  -0.006134 -35.270400  -0.004819  -0.006654 -45.512100  -6.873520   6.705110 -68.872400  -0.006960  -0.004137 -45.869000  -0.000535  -0.005255   6.157380  -8.797570   9.847610  34.378400  33.782600  39.848000 -12.477500  -5.021070  81.740000  13.168300 -13.507200  -1.489920 -66.823100  49.506200  74.866800  22.504600  -0.031378   0.013714   6.252280  -0.007005   0.075636  29.476700  -4.173500  -6.501980  24.270400  -0.318073   0.030769  16.979700  -0.201861   0.079451  27.290000  -4.426800  -7.604560  31.415200  -0.733502   0.218840  20.928300  -0.369768   0.309384  31.802100  -5.527010  -7.628730  47.583400  -0.633829   0.280204  31.811500  -0.281154   0.516934  43.157400 -12.453300 -11.478300  67.006400  -0.335511   0.535445  44.625000   0.048981   0.393031  -3.880110  21.843500   1.808750  -1.074120   2.051770  11.179400  -2.444020  -2.852990   3.697500  -0.000000   0.000000   0.000000  -6.988890  10.911000 -10.657600   0.616025  26.884300 -11.228600  -5.221440  -8.679190   3.356920   0.000000   0.000000  -0.000000
  3.253290  89.060100  -1.565380   3.146030 -24.217200   2.758040  -3.168610  14.670000   4.835530  -8.062270  28.972300  11.097400  -4.159260  -3.431030  -0.249585  -6.903970  -6.850170  14.577500  -2.547710 -11.375900   0.820329 -59.184800  -3.988710 -65.231700  -9.383180 -30.287400 -99.267200 -18.834600 -58.119100  -7.728150  51.897400  50.271800 -98.859900   1.216560   0.005217   0.000000   5.608310   0.003968  -0.001466 -45.341900   4.937940  -4.862670 -37.269400   0.001891  -0.006845 -27.210200  -0.004123  -0.005321 -40.785400  -3.582500   4.141120 -54.369300  -0.001684  -0.001528 -37.550900  -0.003490  -0.003192 -35.402800  -4.109040   5.755040 -53.414200  -0.003805  -0.006159 -35.573800  -0.004778  -0.006716 -45.810000  -7.058930   6.811720 -69.344700  -0.006950  -0.004207 -46.183600  -0.000560  -0.005259   6.401910  -8.794450  10.084300  35.182200  34.342900  39.238400 -13.286500  -2.120870  80.822500   9.782990   5.236760 -10.690700 -62.505600  48.587600  75.414300  24.377200  -0.021039   0.009578   7.188590  -0.008138   0.015248  25.850000  -3.575970  -6.716690  21.408400  -0.074645   0.005953  14.985900  -0.050768   0.016448  23.831100  -3.931730  -7.738010  23.027100  -0.172359   0.013094  15.335700  -0.120361   0.034708  27.260100  -4.171310  -7.748140  38.686500  -0.502862   0.267019  25.537000  -0.212056   0.292625  37.733500  -9.815870 -10.772900  58.427100  -0.242740   0.129733  38.912400  -0.067683   0.182245  -3.990210  21.959800   1.766710  -1.125960   2.050740  11.289900  -2.413240  -2.909180   3.767680   0.000000   0.000000   0.000000  -7.214600  10.802100 -10.544800   0.718903  27.279200 -11.216300  -5.255480  -8.826250   3.366900  -0.000000   0.000000   0.000000
